<svg width="53" height="48" viewBox="0 0 53 48" fill="none" xmlns="http://www.w3.org/2000/svg">
<path d="M40.1939 16.5277C40.2126 16.5276 40.2313 16.5275 40.25 16.5275C46.4632 16.5275 51.5 21.5735 51.5 27.7982C51.5 33.5995 47.1249 38.3771 41.5 39M40.1939 16.5277C40.231 16.1151 40.25 15.6974 40.25 15.2752C40.25 7.66738 34.0939 1.5 26.5 1.5C19.3081 1.5 13.4058 7.03168 12.8011 14.0798M40.1939 16.5277C39.9383 19.369 38.8216 21.9615 37.1071 24.0413M12.8011 14.0798C6.45995 14.6843 1.5 20.0348 1.5 26.5459C1.5 32.6043 5.7944 37.658 11.5 38.8183M12.8011 14.0798C13.1956 14.0422 13.5956 14.0229 14 14.0229C16.8146 14.0229 19.4119 14.9549 21.5012 16.5275" stroke="#111827" stroke-width="3" stroke-linecap="round" stroke-linejoin="round"/>
<path d="M26.5 26.5L26.5 46.5M32.75 32.75C31.5212 31.4858 28.2506 26.5 26.5 26.5C24.7494 26.5 21.4788 31.4858 20.25 32.75" stroke="#111827" stroke-width="3" stroke-linecap="round" stroke-linejoin="round"/>
</svg>
